<svg width="245" height="42" viewBox="0 0 245 42" fill="none" xmlns="http://www.w3.org/2000/svg">
<g clip-path="url(#clip0_807_10118)">
<path d="M214.475 33.4309V13.021H219.824V16.6539H220.08C220.506 15.449 221.217 14.4997 222.215 13.806C223.213 13.1123 224.4 12.7654 225.775 12.7654C227.175 12.7654 228.362 13.1184 229.335 13.8243C230.321 14.518 230.978 15.4612 231.307 16.6539H231.526C231.94 15.4734 232.694 14.5302 233.79 13.8243C234.885 13.1184 236.175 12.7654 237.66 12.7654C239.558 12.7654 241.104 13.3679 242.297 14.5728C243.502 15.7776 244.104 17.4876 244.104 19.7026V33.4309H238.445V20.8345C238.445 19.6904 238.141 18.8385 237.532 18.2787C236.936 17.7188 236.187 17.4389 235.287 17.4389C234.264 17.4389 233.461 17.7675 232.877 18.4247C232.305 19.0698 232.019 19.9217 232.019 20.9805V33.4309H226.542V20.6884C226.542 19.7026 226.256 18.9176 225.684 18.3334C225.112 17.7371 224.364 17.4389 223.439 17.4389C222.806 17.4389 222.24 17.5971 221.741 17.9136C221.242 18.23 220.846 18.6681 220.554 19.228C220.262 19.7756 220.116 20.4328 220.116 21.1996V33.4309H214.475Z" fill="#262626"/>
<path d="M206.428 24.7595V13.021H212.069V33.4309H206.647V29.725H206.428C205.966 30.9056 205.205 31.867 204.146 32.6094C203.087 33.3397 201.791 33.6987 200.258 33.6865C198.894 33.6865 197.69 33.3823 196.643 32.7737C195.608 32.153 194.799 31.2707 194.215 30.1266C193.643 28.9826 193.357 27.6134 193.357 26.0191V13.021H198.998V25.0333C198.998 26.226 199.32 27.1753 199.966 27.8812C200.611 28.5749 201.469 28.9157 202.54 28.9035C203.221 28.9035 203.854 28.7514 204.438 28.4471C205.022 28.1307 205.497 27.6621 205.862 27.0414C206.239 26.4207 206.428 25.6601 206.428 24.7595Z" fill="#262626"/>
<path d="M191.444 18.8446L186.277 19.1549C186.143 18.5099 185.784 17.9562 185.2 17.4937C184.616 17.019 183.831 16.7817 182.845 16.7817C181.969 16.7817 181.233 16.9643 180.636 17.3294C180.052 17.6945 179.76 18.1813 179.76 18.7898C179.76 19.2767 179.949 19.6965 180.326 20.0495C180.715 20.3903 181.379 20.658 182.316 20.8527L186.022 21.583C188.006 21.9846 189.484 22.6357 190.458 23.5363C191.432 24.4369 191.918 25.6236 191.918 27.0962C191.918 28.4471 191.529 29.6277 190.75 30.6378C189.971 31.6358 188.9 32.4208 187.537 32.9928C186.174 33.5526 184.61 33.8326 182.845 33.8326C180.143 33.8326 177.989 33.2666 176.383 32.1348C174.788 31.0029 173.857 29.4694 173.59 27.5343L179.121 27.2422C179.304 28.0698 179.717 28.6966 180.362 29.1226C181.008 29.5485 181.835 29.7615 182.845 29.7615C183.831 29.7615 184.628 29.5668 185.237 29.1773C185.857 28.7879 186.168 28.295 186.168 27.6986C186.168 26.6885 185.292 26.0069 183.539 25.654L180.016 24.9238C178.032 24.5221 176.553 23.8345 175.579 22.8609C174.606 21.8872 174.119 20.6397 174.119 19.1184C174.119 17.804 174.478 16.6722 175.196 15.7229C175.914 14.7736 176.918 14.0433 178.208 13.5322C179.511 13.021 181.032 12.7654 182.772 12.7654C185.352 12.7654 187.379 13.3131 188.851 14.4085C190.336 15.4916 191.2 16.9703 191.444 18.8446Z" fill="#262626"/>
<path d="M153.092 41.0618V13.021H158.642V16.4714H158.897C159.153 15.9115 159.518 15.3456 159.993 14.7736C160.467 14.2016 161.088 13.7269 161.855 13.3496C162.622 12.9602 163.571 12.7654 164.703 12.7654C166.2 12.7654 167.569 13.1549 168.81 13.9338C170.064 14.7005 171.068 15.8628 171.822 17.4207C172.577 18.9785 172.954 20.9258 172.954 23.2625C172.954 25.5262 172.589 27.443 171.859 29.013C171.129 30.5709 170.137 31.7514 168.883 32.5547C167.642 33.3579 166.242 33.7595 164.684 33.7595C163.589 33.7595 162.658 33.577 161.891 33.2119C161.125 32.8467 160.498 32.3904 160.011 31.8427C159.536 31.2828 159.165 30.723 158.897 30.1632H158.733V41.0618H153.092ZM162.895 29.2686C163.82 29.2686 164.599 29.013 165.232 28.5019C165.865 27.9907 166.346 27.2848 166.674 26.3842C167.003 25.4714 167.167 24.4248 167.167 23.2442C167.167 22.0637 167.003 21.0292 166.674 20.1408C166.358 19.2401 165.883 18.5343 165.25 18.0231C164.617 17.5119 163.832 17.2564 162.895 17.2564C161.983 17.2564 161.204 17.5058 160.559 18.0048C159.926 18.4917 159.439 19.1854 159.098 20.086C158.77 20.9744 158.605 22.0272 158.605 23.2442C158.605 24.4491 158.776 25.5019 159.116 26.4025C159.457 27.3031 159.944 28.009 160.577 28.5201C161.222 29.0191 161.995 29.2686 162.895 29.2686Z" fill="#262626"/>
<path d="M145.045 33.4308V13.0209H150.686V33.4308H145.045ZM147.856 10.4103C147.016 10.4103 146.298 10.1304 145.702 9.57057C145.106 9.01073 144.808 8.33527 144.808 7.54419C144.808 6.7531 145.106 6.08373 145.702 5.53605C146.298 4.97621 147.016 4.69629 147.856 4.69629C148.708 4.69629 149.432 4.97621 150.029 5.53605C150.625 6.08373 150.923 6.7531 150.923 7.54419C150.923 8.33527 150.625 9.01073 150.029 9.57057C149.432 10.1304 148.708 10.4103 147.856 10.4103Z" fill="#262626"/>
<path d="M133.438 33.8326C131.381 33.8326 129.598 33.3944 128.089 32.5181C126.592 31.6297 125.436 30.4005 124.62 28.8305C123.817 27.2483 123.416 25.4106 123.416 23.3173C123.416 21.1996 123.817 19.3558 124.62 17.7858C125.436 16.2036 126.592 14.9744 128.089 14.0981C129.598 13.2097 131.381 12.7654 133.438 12.7654C135.507 12.7654 137.29 13.2097 138.787 14.0981C140.296 14.9744 141.452 16.2036 142.255 17.7858C143.071 19.3558 143.479 21.1996 143.479 23.3173C143.479 25.4106 143.071 27.2483 142.255 28.8305C141.452 30.4005 140.296 31.6297 138.787 32.5181C137.29 33.3944 135.507 33.8326 133.438 33.8326ZM133.474 29.4147C134.412 29.4147 135.197 29.153 135.829 28.6297C136.462 28.0942 136.937 27.3639 137.253 26.439C137.582 25.514 137.746 24.4613 137.746 23.2807C137.746 22.088 137.582 21.0353 137.253 20.1225C136.937 19.2097 136.462 18.4917 135.829 17.9683C135.197 17.445 134.412 17.1833 133.474 17.1833C132.525 17.1833 131.728 17.445 131.083 17.9683C130.45 18.4917 129.969 19.2097 129.641 20.1225C129.324 21.0353 129.166 22.088 129.166 23.2807C129.166 24.4613 129.324 25.514 129.641 26.439C129.969 27.3639 130.45 28.0942 131.083 28.6297C131.728 29.153 132.525 29.4147 133.474 29.4147Z" fill="#262626"/>
<path d="M111.9 41.5C109.149 41.5 106.995 40.9523 105.437 39.8569C103.879 38.7738 102.93 37.4228 102.589 35.8042L107.811 35.1105C107.969 35.5243 108.218 35.9076 108.559 36.2606C108.9 36.6135 109.356 36.8934 109.928 37.1003C110.5 37.3194 111.2 37.4289 112.028 37.4289C113.257 37.4289 114.273 37.1308 115.076 36.5344C115.88 35.9502 116.281 34.9583 116.281 33.5587V29.8163H116.044C115.8 30.3761 115.429 30.9116 114.93 31.4228C114.431 31.934 113.792 32.3478 113.013 32.6642C112.234 32.9806 111.303 33.1388 110.22 33.1388C108.687 33.1388 107.293 32.7859 106.04 32.08C104.798 31.362 103.8 30.2666 103.046 28.794C102.303 27.3213 101.932 25.4593 101.932 23.2077C101.932 20.8832 102.309 18.9481 103.064 17.4024C103.831 15.8567 104.841 14.7005 106.094 13.9338C107.348 13.1549 108.723 12.7654 110.22 12.7654C111.364 12.7654 112.32 12.9602 113.086 13.3496C113.865 13.7269 114.498 14.2016 114.985 14.7736C115.472 15.3456 115.837 15.9115 116.08 16.4714H116.299V13.021H121.867V33.65C121.867 35.3782 121.441 36.8265 120.59 37.9949C119.738 39.1632 118.563 40.0395 117.066 40.6237C115.569 41.2079 113.847 41.5 111.9 41.5ZM112.009 28.8853C113.372 28.8853 114.425 28.3802 115.168 27.37C115.922 26.3599 116.299 24.9603 116.299 23.1712C116.299 21.9785 116.129 20.944 115.788 20.0677C115.46 19.1793 114.979 18.4917 114.346 18.0048C113.713 17.5058 112.934 17.2564 112.009 17.2564C111.084 17.2564 110.299 17.5119 109.654 18.0231C109.021 18.5221 108.541 19.2158 108.212 20.1042C107.884 20.9927 107.719 22.015 107.719 23.1712C107.719 24.3396 107.884 25.3558 108.212 26.2199C108.541 27.0719 109.021 27.7291 109.654 28.1915C110.299 28.654 111.084 28.8853 112.009 28.8853Z" fill="#262626"/>
<path d="M91.165 33.8326C89.1082 33.8326 87.3252 33.3944 85.8161 32.5181C84.3191 31.6297 83.1629 30.4005 82.3475 28.8305C81.5443 27.2483 81.1426 25.4106 81.1426 23.3173C81.1426 21.1996 81.5443 19.3558 82.3475 17.7858C83.1629 16.2036 84.3191 14.9744 85.8161 14.0981C87.3252 13.2097 89.1082 12.7654 91.165 12.7654C93.234 12.7654 95.017 13.2097 96.514 14.0981C98.0231 14.9744 99.1793 16.2036 99.9826 17.7858C100.798 19.3558 101.206 21.1996 101.206 23.3173C101.206 25.4106 100.798 27.2483 99.9826 28.8305C99.1793 30.4005 98.0231 31.6297 96.514 32.5181C95.017 33.3944 93.234 33.8326 91.165 33.8326ZM91.2015 29.4147C92.1387 29.4147 92.9237 29.153 93.5565 28.6297C94.1894 28.0942 94.6641 27.3639 94.9805 26.439C95.3091 25.514 95.4734 24.4613 95.4734 23.2807C95.4734 22.088 95.3091 21.0353 94.9805 20.1225C94.6641 19.2097 94.1894 18.4917 93.5565 17.9683C92.9237 17.445 92.1387 17.1833 91.2015 17.1833C90.2523 17.1833 89.4551 17.445 88.81 17.9683C88.1772 18.4917 87.6964 19.2097 87.3678 20.1225C87.0514 21.0353 86.8932 22.088 86.8932 23.2807C86.8932 24.4613 87.0514 25.514 87.3678 26.439C87.6964 27.3639 88.1772 28.0942 88.81 28.6297C89.4551 29.153 90.2523 29.4147 91.2015 29.4147Z" fill="#262626"/>
<path d="M63 33.431V6.22998H68.7323V28.6845H80.3977V33.431H63Z" fill="#262626"/>
<path d="M37.3947 40.5C43.8275 40.3689 49 35.1073 49 28.6389C49 25.4931 47.7512 22.4762 45.5282 20.2518L25.7895 0.5V12.7771C25.7895 14.8303 26.6046 16.7995 28.0556 18.2514L32.6795 22.8784L32.6921 22.8907L40.4452 30.649C40.697 30.9009 40.697 31.3094 40.4452 31.5613C40.1935 31.8133 39.7852 31.8133 39.5335 31.5613L36.861 28.8871H12.139L9.46655 31.5613C9.21476 31.8133 8.80654 31.8133 8.55476 31.5613C8.30297 31.3094 8.30297 30.9009 8.55475 30.649L16.3079 22.8907L16.3205 22.8784L20.9444 18.2514C22.3954 16.7995 23.2105 14.8303 23.2105 12.7771V0.5L3.47175 20.2518C1.24882 22.4762 0 25.4931 0 28.6389C0 35.1073 5.17252 40.3689 11.6053 40.5H37.3947Z" fill="#00439D"/>
</g>
<defs>
<clipPath id="clip0_807_10118">
<rect width="245" height="41" fill="white" transform="translate(0 0.5)"/>
</clipPath>
</defs>
</svg>
